<?xml version="1.0" encoding="UTF-8" standalone="no"?>
<svg
   xmlns:dc="http://purl.org/dc/elements/1.1/"
   xmlns:cc="http://creativecommons.org/ns#"
   xmlns:rdf="http://www.w3.org/1999/02/22-rdf-syntax-ns#"
   xmlns:svg="http://www.w3.org/2000/svg"
   xmlns="http://www.w3.org/2000/svg"
   xmlns:sodipodi="http://sodipodi.sourceforge.net/DTD/sodipodi-0.dtd"
   xmlns:inkscape="http://www.inkscape.org/namespaces/inkscape"
   version="1.1"
   id="svg2"
   xml:space="preserve"
   width="550"
   height="550"
   viewBox="0 0 550.00002 549.99997"
   sodipodi:docname="11012019-47.svg"
   inkscape:version="1.0.2 (e86c870879, 2021-01-15)"><metadata
     id="metadata8"><rdf:RDF><cc:Work
         rdf:about=""><dc:format>image/svg+xml</dc:format><dc:type
           rdf:resource="http://purl.org/dc/dcmitype/StillImage" /><dc:title></dc:title></cc:Work></rdf:RDF></metadata><defs
     id="defs6" /><sodipodi:namedview
     pagecolor="#ffffff"
     bordercolor="#666666"
     borderopacity="1"
     objecttolerance="10"
     gridtolerance="10"
     guidetolerance="10"
     inkscape:pageopacity="0"
     inkscape:pageshadow="2"
     inkscape:window-width="2113"
     inkscape:window-height="1090"
     id="namedview4"
     showgrid="false"
     fit-margin-top="0"
     fit-margin-left="0"
     fit-margin-right="0"
     fit-margin-bottom="0"
     inkscape:zoom="0.94499993"
     inkscape:cx="262.43676"
     inkscape:cy="237.28399"
     inkscape:window-x="26"
     inkscape:window-y="23"
     inkscape:window-maximized="0"
     inkscape:current-layer="g10" /><g
     id="g10"
     inkscape:groupmode="layer"
     inkscape:label="ink_ext_XXXXXX"
     transform="matrix(1.3333333,0,0,-1.3333333,-404.22987,770.61731)"><g
       id="g12"
       transform="matrix(0.1,0,0,0.1,9.4222104,-28.286796)"><path
         d="M 4016.47,4806.49 C 2970.21,4386.34 2987.76,3409.55 3061.51,2948.73 c 0,0 132.34,339.69 1115.14,728.12 1669.62,659.88 1989.87,1092.91 2308.17,1408.37 l -19.81,-22.98 C 5877.28,4199.38 4849.99,3776.55 4158.37,3416.63 3523.06,3086.01 3199.99,2721.62 3199.99,2721.62 4472.37,1647.88 5616.22,2485.54 6233.64,3489.79 6878.18,4538.15 6968.28,5779.63 6968.28,5779.63 6529.35,5040.95 5410.07,5366.12 4016.47,4806.49"
         style="fill:#3db83d;fill-opacity:1;fill-rule:nonzero;stroke:none"
         id="path14" /></g></g></svg>
